<?xml version="1.0" encoding="UTF-8"?>
<svg xmlns="http://www.w3.org/2000/svg" version="1.1" xmlns:xlink="http://www.w3.org/1999/xlink" viewBox="0 0 512 512">
  <defs>
    <style>
      .cls-1 {
        fill: #fff;
      }

      .cls-2 {
        fill: #0cc243;
      }

      .cls-3 {
        filter: url(#drop-shadow-1);
      }
    </style>
    <filter id="drop-shadow-1" x="-2.7" y="-2.7" width="33" height="33">
      <feOffset dx="0" dy="0"/>
      <feGaussianBlur result="blur" stdDeviation="1.4"/>
      <feFlood flood-color="#000" flood-opacity="0"/>
      <feComposite in2="blur" operator="in"/>
      <feComposite in="SourceGraphic"/>
    </filter>
  </defs>
  <!-- Generator: Adobe Illustrator 28.7.1, SVG Export Plug-In . SVG Version: 1.2.0 Build 142)  -->
  <g>
    <g id="Capa_1">
      <g class="cls-3">
        <g id="Capa_1-2" data-name="Capa_1">
          <path class="cls-1" d="M372.8,307.2c-.2-.3-.5-.7-1-1-2.1-1.5-6.7-3.1-11.2-4.6l4.2,2.1c-6.2-2.1-35.2-16.6-41.5-18.6-6.2,0-10.4-2.1-14.5,2.1-4.1,6.2-14.5,18.7-18.6,22.8-1.8,1.8-3.2,2.8-4.8,3-1.5.2-3.1-.3-5.3-1.6-.7-.4-1.5-.9-2.3-1.5-2.5-.8-6.9-2.3-12.8-5.1-8.9-4.2-21.1-11.4-34.8-23.9-18.6-16.6-29-35.2-33.2-41.5-4.2-6.2,0-8.3,2.1-12.4,2.1-4.1,6.2-6.2,8.3-10.4,2.1-4.1,4.2-6.2,6.2-10.4,2.1-4.1,0-8.3,0-10.4s-14.5-33.2-18.7-43.5c-1.3-3.9-2.8-6.4-4.3-8-3.3-3.4-6.7-2.4-8.1-2.4h-12.4c-6.2,0-12.4,2.1-16.6,8.3-6.2,6.2-20.7,20.7-20.7,49.7s20.7,58,24.9,62.2c2,3.9,37.8,58.7,93.2,85.4,0,0,0,0,0,0,2.7,1.3,5.4,2.5,8.2,3.7,14.5,6.2,24.9,10.4,33.2,12.4,14.5,4.1,26.9,4.1,37.3,2.1,12.4,0,35.2-14.5,39.4-29,4.1-14.5,4.1-24.9,4.1-29s0-.4-.2-.7ZM376.7,308.9c-.8-.9-2.6-1.8-4.9-2.7-2.1-1.5-6.7-3.1-11.2-4.6l4.2,2.1c-6.2-2.1-35.2-16.6-41.5-18.6-6.2,0-10.4-2.1-14.5,2.1-4.1,6.2-14.5,18.7-18.6,22.8-1.8,1.8-3.2,2.8-4.8,3-1.5.2-3.1-.3-5.3-1.6-.7-.4-1.5-.9-2.3-1.5-2.5-.8-6.9-2.3-12.8-5.1-8.9-4.2-21.1-11.4-34.8-23.9-18.6-16.6-29-35.2-33.2-41.5-4.2-6.2,0-8.3,2.1-12.4,2.1-4.1,6.2-6.2,8.3-10.4,2.1-4.1,4.2-6.2,6.2-10.4,2.1-4.1,0-8.3,0-10.4s-14.5-33.2-18.7-43.5c-1.3-3.9-2.8-6.4-4.3-8-3.3-3.4-6.7-2.4-8.1-2.4h-12.4c-6.2,0-12.4,2.1-16.6,8.3-6.2,6.2-20.7,20.7-20.7,49.7s20.7,58,24.9,62.2c2,3.9,37.8,58.7,93.2,85.4,0,0,0,0,0,0,2.7,1.3,5.4,2.5,8.2,3.7,14.5,6.2,24.9,10.4,33.2,12.4,14.5,4.1,26.9,4.1,37.3,2.1,12.4,0,35.2-14.5,39.4-29,4.1-14.5,4.1-24.9,4.1-29l4.2,2.1c0-.3-.2-.7-.5-1ZM376.7,308.9c-.8-.9-2.6-1.8-4.9-2.7-2.1-1.5-6.7-3.1-11.2-4.6l4.2,2.1c-6.2-2.1-35.2-16.6-41.5-18.6-6.2,0-10.4-2.1-14.5,2.1-4.1,6.2-14.5,18.7-18.6,22.8-1.8,1.8-3.2,2.8-4.8,3-1.5.2-3.1-.3-5.3-1.6-.7-.4-1.5-.9-2.3-1.5-2.5-.8-6.9-2.3-12.8-5.1-8.9-4.2-21.1-11.4-34.8-23.9-18.6-16.6-29-35.2-33.2-41.5-4.2-6.2,0-8.3,2.1-12.4,2.1-4.1,6.2-6.2,8.3-10.4,2.1-4.1,4.2-6.2,6.2-10.4,2.1-4.1,0-8.3,0-10.4s-14.5-33.2-18.7-43.5c-1.3-3.9-2.8-6.4-4.3-8-3.3-3.4-6.7-2.4-8.1-2.4h-12.4c-6.2,0-12.4,2.1-16.6,8.3-6.2,6.2-20.7,20.7-20.7,49.7s20.7,58,24.9,62.2c2,3.9,37.8,58.7,93.2,85.4,0,0,0,0,0,0,2.7,1.3,5.4,2.5,8.2,3.7,14.5,6.2,24.9,10.4,33.2,12.4,14.5,4.1,26.9,4.1,37.3,2.1,12.4,0,35.2-14.5,39.4-29,4.1-14.5,4.1-24.9,4.1-29l4.2,2.1c0-.3-.2-.7-.5-1ZM376.7,308.9c-.8-.9-2.6-1.8-4.9-2.7-2.1-1.5-6.7-3.1-11.2-4.6l4.2,2.1c-6.2-2.1-35.2-16.6-41.5-18.6-6.2,0-10.4-2.1-14.5,2.1-4.1,6.2-14.5,18.7-18.6,22.8-1.8,1.8-3.2,2.8-4.8,3-1.5.2-3.1-.3-5.3-1.6-.7-.4-1.5-.9-2.3-1.5-2.5-.8-6.9-2.3-12.8-5.1-8.9-4.2-21.1-11.4-34.8-23.9-18.6-16.6-29-35.2-33.2-41.5-4.2-6.2,0-8.3,2.1-12.4,2.1-4.1,6.2-6.2,8.3-10.4,2.1-4.1,4.2-6.2,6.2-10.4,2.1-4.1,0-8.3,0-10.4s-14.5-33.2-18.7-43.5c-1.3-3.9-2.8-6.4-4.3-8-3.3-3.4-6.7-2.4-8.1-2.4h-12.4c-6.2,0-12.4,2.1-16.6,8.3-6.2,6.2-20.7,20.7-20.7,49.7s20.7,58,24.9,62.2c2,3.9,37.8,58.7,93.2,85.4,0,0,0,0,0,0,2.7,1.3,5.4,2.5,8.2,3.7,14.5,6.2,24.9,10.4,33.2,12.4,14.5,4.1,26.9,4.1,37.3,2.1,12.4,0,35.2-14.5,39.4-29,4.1-14.5,4.1-24.9,4.1-29l4.2,2.1c0-.3-.2-.7-.5-1ZM424.8,86.1c-43.5-45.6-105.7-70.5-167.8-70.5C126.4,15.6,18.7,121.3,18.7,253.9s10.4,82.9,31.1,118.1l-33.2,124.3,126.4-33.2c35.2,18.7,74.6,29,114,29,65.3,0,124.8-26.4,168.1-69.4s70.2-102.6,70.2-168.9-24.9-124.3-70.5-167.9ZM261.1,452.9l-4.1-2.1c-.6,0-1.3,0-1.9,0-34.6-.4-69.1-10.6-99.6-26.9l-6.2-4.1-3,.8-71.6,17.9.3-1.1,20.4-71.4-4.1-8.3c-20.7-31.1-31.1-68.4-29-105.7,0-107.1,88-195.7,196.8-196.8.7,0,1.4,0,2.1,0,51.8,0,103.6,20.7,140.9,58s58,87,58,140.9c0,109.8-89.1,198.9-198.9,198.9ZM371.8,306.2c-2.1-1.5-6.7-3.1-11.2-4.6l4.2,2.1c-6.2-2.1-35.2-16.6-41.5-18.6-6.2,0-10.4-2.1-14.5,2.1-4.1,6.2-14.5,18.7-18.6,22.8-1.8,1.8-3.2,2.8-4.8,3-1.5.2-3.1-.3-5.3-1.6-.7-.4-1.5-.9-2.3-1.5-2.5-.8-6.9-2.3-12.8-5.1-8.9-4.2-21.1-11.4-34.8-23.9-18.6-16.6-29-35.2-33.2-41.5-4.2-6.2,0-8.3,2.1-12.4,2.1-4.1,6.2-6.2,8.3-10.4,2.1-4.1,4.2-6.2,6.2-10.4,2.1-4.1,0-8.3,0-10.4s-14.5-33.2-18.7-43.5c-1.3-3.9-2.8-6.4-4.3-8-3.3-3.4-6.7-2.4-8.1-2.4h-12.4c-6.2,0-12.4,2.1-16.6,8.3-6.2,6.2-20.7,20.7-20.7,49.7s20.7,58,24.9,62.2c2,3.9,37.8,58.7,93.2,85.4,0,0,0,0,0,0,2.7,1.3,5.4,2.5,8.2,3.7,14.5,6.2,24.9,10.4,33.2,12.4,14.5,4.1,26.9,4.1,37.3,2.1,12.4,0,35.2-14.5,39.4-29,4.1-14.5,4.1-24.9,4.1-29l4.2,2.1c0-.3-.2-.7-.5-1-.8-.9-2.6-1.8-4.9-2.7ZM376.7,308.9c-.8-.9-2.6-1.8-4.9-2.7-2.1-1.5-6.7-3.1-11.2-4.6l4.2,2.1c-6.2-2.1-35.2-16.6-41.5-18.6-6.2,0-10.4-2.1-14.5,2.1-4.1,6.2-14.5,18.7-18.6,22.8-1.8,1.8-3.2,2.8-4.8,3-1.5.2-3.1-.3-5.3-1.6-.7-.4-1.5-.9-2.3-1.5-2.5-.8-6.9-2.3-12.8-5.1-8.9-4.2-21.1-11.4-34.8-23.9-18.6-16.6-29-35.2-33.2-41.5-4.2-6.2,0-8.3,2.1-12.4,2.1-4.1,6.2-6.2,8.3-10.4,2.1-4.1,4.2-6.2,6.2-10.4,2.1-4.1,0-8.3,0-10.4s-14.5-33.2-18.7-43.5c-1.3-3.9-2.8-6.4-4.3-8-3.3-3.4-6.7-2.4-8.1-2.4h-12.4c-6.2,0-12.4,2.1-16.6,8.3-6.2,6.2-20.7,20.7-20.7,49.7s20.7,58,24.9,62.2c2,3.9,37.8,58.7,93.2,85.4,0,0,0,0,0,0,2.7,1.3,5.4,2.5,8.2,3.7,14.5,6.2,24.9,10.4,33.2,12.4,14.5,4.1,26.9,4.1,37.3,2.1,12.4,0,35.2-14.5,39.4-29,4.1-14.5,4.1-24.9,4.1-29l4.2,2.1c0-.3-.2-.7-.5-1ZM376.7,308.9c-.8-.9-2.6-1.8-4.9-2.7-2.1-1.5-6.7-3.1-11.2-4.6l4.2,2.1c-6.2-2.1-35.2-16.6-41.5-18.6-6.2,0-10.4-2.1-14.5,2.1-4.1,6.2-14.5,18.7-18.6,22.8-1.8,1.8-3.2,2.8-4.8,3-1.5.2-3.1-.3-5.3-1.6-.7-.4-1.5-.9-2.3-1.5-2.5-.8-6.9-2.3-12.8-5.1-8.9-4.2-21.1-11.4-34.8-23.9-18.6-16.6-29-35.2-33.2-41.5-4.2-6.2,0-8.3,2.1-12.4,2.1-4.1,6.2-6.2,8.3-10.4,2.1-4.1,4.2-6.2,6.2-10.4,2.1-4.1,0-8.3,0-10.4s-14.5-33.2-18.7-43.5c-1.3-3.9-2.8-6.4-4.3-8-3.3-3.4-6.7-2.4-8.1-2.4h-12.4c-6.2,0-12.4,2.1-16.6,8.3-6.2,6.2-20.7,20.7-20.7,49.7s20.7,58,24.9,62.2c2,3.9,37.8,58.7,93.2,85.4,0,0,0,0,0,0,2.7,1.3,5.4,2.5,8.2,3.7,14.5,6.2,24.9,10.4,33.2,12.4,14.5,4.1,26.9,4.1,37.3,2.1,12.4,0,35.2-14.5,39.4-29,4.1-14.5,4.1-24.9,4.1-29l4.2,2.1c0-.3-.2-.7-.5-1ZM376.7,308.9c-.8-.9-2.6-1.8-4.9-2.7-2.1-.8-4.6-1.7-7.1-2.5-6.2-2.1-35.2-16.6-41.5-18.6-6.2,0-10.4-2.1-14.5,2.1-4.1,6.2-14.5,18.7-18.6,22.8-1.8,1.8-3.2,2.8-4.8,3-1.5.2-3.1-.3-5.3-1.6-.7-.4-1.5-.9-2.3-1.5-2.5-.8-6.9-2.3-12.8-5.1-8.9-4.2-21.1-11.4-34.8-23.9-18.6-16.6-29-35.2-33.2-41.5-4.2-6.2,0-8.3,2.1-12.4,2.1-4.1,6.2-6.2,8.3-10.4,2.1-4.1,4.2-6.2,6.2-10.4,2.1-4.1,0-8.3,0-10.4s-14.5-33.2-18.7-43.5c-1.3-3.9-2.8-6.4-4.3-8-3.3-3.4-6.7-2.4-8.1-2.4h-12.4c-6.2,0-12.4,2.1-16.6,8.3-6.2,6.2-20.7,20.7-20.7,49.7s20.7,58,24.9,62.2c2,3.9,37.8,58.7,93.2,85.4,0,0,0,0,0,0,2.7,1.3,5.4,2.5,8.2,3.7,14.5,6.2,24.9,10.4,33.2,12.4,14.5,4.1,26.9,4.1,37.3,2.1,12.4,0,35.2-14.5,39.4-29,4.1-14.5,4.1-24.9,4.1-29l4.2,2.1c0-.3-.2-.7-.5-1ZM376.7,308.9c-.8-.9-2.6-1.8-4.9-2.7-2.1-.8-4.6-1.7-7.1-2.5-6.2-2.1-35.2-16.6-41.5-18.6-6.2,0-10.4-2.1-14.5,2.1-4.1,6.2-14.5,18.7-18.6,22.8-1.8,1.8-3.2,2.8-4.8,3-1.5.2-3.1-.3-5.3-1.6-.7-.4-1.5-.9-2.3-1.5-2.5-.8-6.9-2.3-12.8-5.1-8.9-4.2-21.1-11.4-34.8-23.9-18.6-16.6-29-35.2-33.2-41.5-4.2-6.2,0-8.3,2.1-12.4,2.1-4.1,6.2-6.2,8.3-10.4,2.1-4.1,4.2-6.2,6.2-10.4,2.1-4.1,0-8.3,0-10.4s-14.5-33.2-18.7-43.5c-1.3-3.9-2.8-6.4-4.3-8-3.3-3.4-6.7-2.4-8.1-2.4h-12.4c-6.2,0-12.4,2.1-16.6,8.3-6.2,6.2-20.7,20.7-20.7,49.7s20.7,58,24.9,62.2c2,3.9,37.8,58.7,93.2,85.4,0,0,0,0,0,0,2.7,1.3,5.4,2.5,8.2,3.7,14.5,6.2,24.9,10.4,33.2,12.4,14.5,4.1,26.9,4.1,37.3,2.1,12.4,0,35.2-14.5,39.4-29,4.1-14.5,4.1-24.9,4.1-29l4.2,2.1c0-.3-.2-.7-.5-1Z"/>
          <path class="cls-2" d="M371.8,306.2c-2.1-1.5-6.7-3.1-11.2-4.6l4.2,2.1c-6.2-2.1-35.2-16.6-41.5-18.6-6.2,0-10.4-2.1-14.5,2.1-4.1,6.2-14.5,18.7-18.6,22.8-1.8,1.8-3.2,2.8-4.8,3,4.3,1,7.3.7,9-1,4.1-4.1,14.5-16.6,18.7-22.8,4.1-6.2,8.3-4.1,14.5-2.1,6.2,2.1,35.2,16.6,41.5,18.7,1.4.5,2.7,1,3.9,1.4,1.4.6,2.8,1.1,3.9,1.7-.8-.9-2.6-1.8-4.9-2.7ZM277.7,309.9c-2.5-.8-6.9-2.3-12.8-5.1,6.6,3.5,11.8,5.4,15.2,6.6-.7-.4-1.5-.9-2.3-1.5ZM259,55c-.7,0-1.4,0-2,0-109.8,0-198.9,89.1-198.9,196.9s10.4,74.6,29,105.7l4.1,8.3-20.7,72.5,4.5-1.1,20.4-71.4-4.1-8.3c-20.7-31.1-31.1-68.4-29-105.7,0-107.1,88-195.7,196.8-196.8ZM155.4,423.9l-6.2-4.1-3,.8,5.1,3.4c31.1,18.7,64.2,26.9,101.5,26.9s1.5,0,2.2,0c-34.6-.4-69.1-10.6-99.6-26.9ZM161.7,264.3c-2.1-4.2-24.9-33.2-24.9-62.2s14.5-43.5,20.7-49.7c4.1-4.2,10.4-6.2,16.6-8.3h12.4c1.3,0,2.6,0,3.9.3-3.3-3.4-6.7-2.4-8.1-2.4h-12.4c-6.2,0-12.4,2.1-16.6,8.3-6.2,6.2-20.7,20.7-20.7,49.7s20.7,58,24.9,62.2c2,3.9,37.8,58.7,93.2,85.4-53-27.3-87.2-79.5-89.1-83.3Z"/>
          <path class="cls-2" d="M402.1,113c-37.3-37.3-89.1-58-140.9-58s-1.4,0-2.1,0c-108.9,1.1-196.8,89.8-196.8,196.8-2.1,37.3,8.3,74.6,29,105.7l4.1,8.3-20.4,71.4,70.1-17.5,1.1.8,3-.8,6.2,4.1c30.5,16.3,65,26.6,99.6,26.9.6,0,1.3,0,1.9,0l4.1,2.1c109.8,0,198.9-89.1,198.9-198.9s-20.7-103.6-58-140.9ZM373,307.8c0,4.1,0,14.5-4.1,29-4.1,14.5-26.9,29-39.4,29-10.4,2.1-22.8,2.1-37.3-2.1-8.3-2.1-18.7-6.2-33.2-12.4-2.8-1.2-5.5-2.4-8.2-3.7,0,0,0,0,0,0-55.4-26.7-91.3-81.4-93.2-85.4-4.2-4.2-24.9-33.2-24.9-62.2s14.5-43.5,20.7-49.7c4.2-6.2,10.4-8.3,16.6-8.3h12.4c1.4,0,4.8-1,8.1,2.4,1.5,1.6,3,4,4.3,8,4.1,10.4,18.7,41.4,18.7,43.5s2.1,6.2,0,10.4c-2.1,4.2-4.2,6.2-6.2,10.4-2.1,4.1-6.2,6.2-8.3,10.4-2.1,4.1-6.2,6.2-2.1,12.4,4.1,6.2,14.5,24.9,33.2,41.5,13.7,12.5,25.9,19.7,34.8,23.9,5.9,2.8,10.4,4.3,12.8,5.1.8.6,1.6,1,2.3,1.5.7.2,1.3.4,1.8.6,1.2.4,2.4.7,3.5,1,1.6-.2,3-1.2,4.8-3,4.1-4.1,14.5-16.6,18.6-22.8,4.2-4.1,8.3-2.1,14.5-2.1,6.2,2.1,35.2,16.6,41.5,18.6l-4.2-2.1c4.6,1.5,9.2,3,11.2,4.6,2.3.9,4.1,1.8,4.9,2.7.3.3.5.7.5,1l-4.2-2.1Z"/>
        </g>
      </g>
    </g>
  </g>
</svg>